Coordinates
version=1
nRows=20
nColumns=23
inDegrees=yes

Units are S.I. units (second, meters, Newtons, ...)
If the header above contains a line with 'inDegrees', this indicates whether rotational values are in degrees (yes) or radians (no).

endheader
time	pelvis_tilt	pelvis_list	pelvis_rotation	pelvis_tx	pelvis_ty	pelvis_tz	hip_flexion_r	hip_adduction_r	hip_rotation_r	knee_angle_r	knee_angle_r_beta	ankle_angle_r	subtalar_angle_r	mtp_angle_r	hip_flexion_l	hip_adduction_l	hip_rotation_l	knee_angle_l	knee_angle_l_beta	ankle_angle_l	subtalar_angle_l	mtp_angle_l
     22.50000000	     -4.57189294	     -5.20161808	     -4.33225835	      2.11158050	      0.91505386	      1.01649685	     18.49623825	      9.48823997	     -0.52904174	     41.25580170	      0.72004958	     24.94876877	     -4.29729530	      0.00000000	     19.56353972	     -9.10179261	      1.58037968	     88.61129548	      1.54655886	     -6.11364962	     -6.49499639	      0.00000000
     22.50666667	     -4.09381678	     -5.11164857	     -3.86131218	      2.11150793	      0.91740438	      1.01668236	     16.20809133	      9.20956964	     -0.71021284	     40.06268165	      0.69922570	     25.52743255	     -3.54737336	      0.00000000	     20.50221685	     -8.96859808	      1.98648980	     88.51484173	      1.54487543	     -5.22504839	     -6.61029525	      0.00000000
     22.51333333	     -4.28657534	     -4.58830910	     -3.85827989	      2.11120076	      0.91939648	      1.01757785	     14.71225847	      8.73479521	     -0.22468848	     38.97581187	      0.68025625	     25.82725243	     -3.17577371	      0.00000000	     22.03201550	     -8.61247989	      1.76648878	     88.12658231	      1.53809902	     -4.64091624	     -6.69545920	      0.00000000
     22.52000000	     -3.69839942	     -4.20136157	     -3.57645366	      2.11166584	      0.92302843	      1.01807615	     12.09013516	      8.22791581	     -0.11414137	     37.34576893	      0.65180663	     25.83391910	     -2.60987441	      0.00000000	     22.54064698	     -8.27791166	      1.65733371	     87.30859145	      1.52382239	     -3.97092937	     -6.64578660	      0.00000000
     22.52666667	     -3.54023618	     -3.63892468	     -3.46807069	      2.11208444	      0.92648604	      1.01883123	      9.97310492	      7.64341498	      0.25169713	     35.75220834	      0.62399375	     25.59273362	     -2.21332357	      0.00000000	     23.42520254	     -7.84550890	      1.30691922	     86.26919517	      1.50568150	     -3.35264940	     -6.55163823	      0.00000000
     22.53333333	     -3.46035711	     -2.88545697	     -3.37584653	      2.11266663	      0.93020898	      1.01954587	      7.96954646	      6.82733697	      0.55726802	     34.16417281	      0.59627730	     25.12225060	     -1.80292620	      0.00000000	     24.27034960	     -7.18779083	      0.83118675	     84.93410824	      1.48237984	     -2.76049550	     -6.43193438	      0.00000000
     22.54000000	     -3.47974618	     -2.05852827	     -3.32504171	      2.11339872	      0.93415270	      1.02025361	      6.08660800	      5.90225769	      0.75780155	     32.54781580	      0.56806655	     24.26662162	     -1.33187521	      0.00000000	     25.10688534	     -6.45199534	      0.25179256	     83.34404825	      1.45462805	     -2.14712683	     -6.24810010	      0.00000000
     22.54666667	     -4.16045324	     -1.36286478	     -3.36661993	      2.11403573	      0.93726124	      1.02110809	      5.04995799	      5.15632858	      0.92037120	     31.15072774	      0.54368276	     23.62770732	     -0.86252899	      0.00000000	     26.65391131	     -6.08838763	     -0.52875552	     81.73811613	      1.42659925	     -1.59710047	     -6.12424214	      0.00000000
     22.55333333	     -3.26918509	     -0.48653945	     -3.10830775	      2.11566681	      0.94307740	      1.02134940	      1.96840631	      4.06031660	      0.75561274	     29.01214572	      0.50635747	     21.70459698	     -0.25236291	      0.00000000	     26.12361491	     -5.02225405	     -0.98041281	     79.41014314	      1.38596846	     -1.00899792	     -5.89058557	      0.00000000
     22.56000000	     -3.25205193	      0.32799839	     -2.98440888	      2.11692208	      0.94764664	      1.02171532	      0.09287515	      3.07102204	      0.52168328	     27.31326648	      0.47670643	     19.93545853	      0.23301700	      0.00000000	     26.57516351	     -4.21326695	     -1.60355574	     77.11793552	      1.34596189	     -0.44294950	     -5.66275344	      0.00000000
     22.56666667	     -3.63342178	      1.20420956	     -2.93468615	      2.11810024	      0.95174825	      1.02207334	     -1.16966862	      1.98794788	      0.10896181	     25.88117426	      0.45171171	     17.87192703	      0.77422640	      0.00000000	     27.38590311	     -3.37609923	     -2.33090423	     74.67363671	      1.30330082	      0.11261094	     -5.34965835	      0.00000000
     22.57333333	     -3.52160168	      1.92014972	     -2.70174378	      2.11962451	      0.95655764	      1.02213074	     -3.10542653	      1.07304063	     -0.49407373	     24.16165614	      0.42170045	     15.59799613	      1.40617341	      0.00000000	     27.52528061	     -2.53156749	     -2.80345586	     71.97322045	      1.25616967	      0.57128699	     -5.20634960	      0.00000000
     22.58000000	     -3.74102010	      2.57333376	     -2.56537063	      2.12096043	      0.96089393	      1.02220308	     -4.49499522	      0.22546424	     -1.11533076	     22.71052615	      0.39637346	     13.04729602	      2.00212587	      0.00000000	     27.95846721	     -1.81029805	     -3.35905940	     69.15454678	      1.20697453	      1.00135849	     -4.96688122	      0.00000000
     22.58666667	     -4.06244368	      3.14069070	     -2.40751183	      2.12225287	      0.96503395	      1.02216545	     -5.66661347	     -0.53466590	     -1.83601016	     21.41050411	      0.37368379	     10.37724272	      2.62503084	      0.00000000	     28.42430497	     -1.13281726	     -3.84232029	     66.18670787	      1.15517597	      1.37066547	     -4.72476954	      0.00000000
     22.59333333	     -4.45527766	      3.57524158	     -2.26754889	      2.12351030	      0.96893426	      1.02206238	     -6.64520772	     -1.16680245	     -2.61411483	     20.27303419	      0.35383120	      7.54978756	      3.28275904	      0.00000000	     28.88718061	     -0.59523516	     -4.31375126	     63.09897983	      1.10128495	      1.66701485	     -4.49191762	      0.00000000
     22.60000000	     -5.22725508	      3.81905619	     -2.26323853	      2.12446759	      0.97226582	      1.02205519	     -6.97369444	     -1.61081930	     -3.21711803	     19.49793207	      0.34030311	      4.74156293	      4.01467122	      0.00000000	     29.71557152	     -0.35092026	     -4.87993255	     59.95619525	      1.04643301	      1.98087586	     -4.12083971	      0.00000000
     22.60666667	     -5.32583695	      4.07203522	     -1.94256230	      2.12581545	      0.97625077	      1.02155016	     -8.15218529	     -2.05971719	     -4.24428795	     18.51782096	      0.32319695	      1.80189998	      4.66736220	      0.00000000	     29.65659068	      0.18609274	     -5.09739889	     56.52021106	      0.98646378	      2.08332380	     -3.97672652	      0.00000000
     22.61333333	     -6.09294402	      4.01651202	     -1.91480261	      2.12665899	      0.97918602	      1.02135554	     -8.23575701	     -2.20946465	     -4.81073091	     18.12903348	      0.31641132	     -0.96308351	      5.33094562	      0.00000000	     30.32153108	      0.17882805	     -5.55910968	     53.17327774	      0.92804877	      2.32226654	     -3.48049534	      0.00000000
     22.62000000	     -6.63988341	      3.97748841	     -1.74290744	      2.12765896	      0.98213305	      1.02093672	     -8.51547112	     -2.39837330	     -5.62526635	     17.83055126	      0.31120183	     -3.70585392	      5.88903129	      0.00000000	     30.63398265	      0.28824010	     -5.96005265	     49.65104045	      0.86657413	      2.43725441	     -2.93283903	      0.00000000
     22.62666667	     -6.77633969	      3.92733484	     -1.49568864	      2.12876223	      0.98530993	      1.02028114	     -9.17800161	     -2.60433863	     -6.58309035	     17.64659481	      0.30799118	     -6.17645073	      6.60302633	      0.00000000	     30.36629545	      0.53270776	     -6.21260276	     45.93217447	      0.80166768	      2.46145431	     -2.47446369	      0.00000000
